<?xml version="1.0" encoding="utf-8"?>
<!-- Generator: Adobe Illustrator 26.3.1, SVG Export Plug-In . SVG Version: 6.00 Build 0)  -->
<svg version="1.1" xmlns="http://www.w3.org/2000/svg" xmlns:xlink="http://www.w3.org/1999/xlink" x="0px" y="0px"
	 viewBox="0 0 850.394 850.394" enable-background="new 0 0 850.394 850.394" xml:space="preserve">
<g id="GUIDE">
	<path fill="#FFFFFF" d="M257.691,555.724c98.086,0,209.366,11.962,331.405,35.578c-131.773,7.828-296.061,47.071-489.434,116.967
		c69.925-193.431,109.169-357.748,116.953-489.536c23.631,122.069,35.578,233.393,35.578,331.493v5.497H257.691z"/>
	<path fill="#FFFFFF" d="M297.316,261.495c0,70.644-11.684,153.924-34.787,248.008c-3.122-99.039-17.503-210.186-42.835-331.127
		c120.969,25.331,232.132,39.698,331.185,42.82c-94.099,23.103-177.394,34.801-248.066,34.801h-5.497V261.495z"/>
	<path fill="#FFFFFF" d="M308.281,266.963c77.959-0.645,170.562-15.041,275.524-42.835c-27.794,104.961-42.19,197.58-42.849,275.509
		c-77.929,0.66-170.533,15.041-275.494,42.82C293.24,437.511,307.636,344.893,308.281,266.963z"/>
	<path fill="#FFFFFF" d="M551.935,505.12c0-70.658,11.684-153.938,34.787-248.022c3.122,99.039,17.503,210.187,42.82,331.127
		c-120.969-25.331-232.132-39.698-331.185-42.82c94.099-23.089,177.408-34.787,248.081-34.787h5.497V505.12z"/>
	<path fill="#FFFFFF" d="M533.684,147.328c-113.009,12.226-220.375,18.412-320.572,18.427h-6.025v6.084
		c-0.059,80.744-13.721,175.796-40.782,284.158c1.349-112.012-8.59-217.765-29.656-315.06
		C278.405,148.618,411.351,150.743,533.684,147.328z"/>
	<path fill="#FFFFFF" d="M666.263,141.699c-20.406,142.108-32.002,276.857-34.538,401.462
		c-23.03-120.222-34.67-229.947-34.67-326.787v-5.497h-5.497c-96.825,0-206.522-11.654-326.714-34.669
		C389.45,173.656,524.17,162.075,666.263,141.699z"/>
	<path fill="#FFFFFF" d="M750.731,709.457c-142.475-39.903-282.282-61.174-416.4-63.373
		c115.692-30.008,216.666-45.166,301.749-45.239h6.084v-6.084c0.029-114.285,8.077-237.893,23.968-368.552
		C669.987,365.768,698.324,527.798,750.731,709.457z"/>
</g>
<g id="Layer_1">
</g>
<g id="roads">
</g>
<g id="Arcs">
</g>
</svg>
