<?xml version="1.0" encoding="UTF-8"?>
<svg id="Layer_1" data-name="Layer 1" xmlns="http://www.w3.org/2000/svg" version="1.1" viewBox="0 0 2296.2 2297.9">
  <defs>
    <style>
      .cls-1 {
        fill: #000;
      }

      .cls-1, .cls-2 {
        stroke-width: 0px;
      }

      .cls-2 {
        fill: #fff;
      }
    </style>
  </defs>
  <rect class="cls-2" width="2296.2" height="2297.9"/>
  <g>
    <polygon class="cls-1" points="2296.2 1775 2296.2 2296.2 1774.5 2296.6 2296.2 1775"/>
    <polygon class="cls-1" points="2296.2 1190.8 2296.2 1697.1 1789.9 1697.1 2296.2 1190.8"/>
    <polygon class="cls-1" points="1725.8 535.1 1190.7 0 2260.8 0 1725.8 535.1"/>
    <polygon class="cls-1" points="2296.2 35.6 2296.2 1105.5 1761.2 570.5 2296.2 35.6"/>
    <polygon class="cls-1" points="2253 1747.2 1747.3 2252.9 1747.3 1747.2 2253 1747.2"/>
    <polygon class="cls-1" points="2223.7 1178.2 2034.3 1367.6 2034.3 1178.2 2223.7 1178.2"/>
    <path class="cls-1" d="M2223.6,1118h-209l-79-79-35.4,35.4,43.6,43.6h-216.1l-78.9-78.9-35.4,35.4,43.5,43.5h-216.1l-78.9-78.9-35.4,35.4,43.5,43.5h-156l185.8-185.8-35.4-35.4-205.5,205.5c-40.4-84.9-59.6-168.9-57.6-252.9l118.7,118.7,35.4-35.5-148.4-148.4c8.4-54.5,25.7-109.2,51.9-164.3l61.3,61.3,35.4-35.4-71.8-71.8,208.9-208.9-35.4-35.4-127.8,127.7c17.2-56.8,25.8-113.8,25.8-170.4,0-53.3-7.7-106.9-22.9-160.3l307.4,307.4-69.2,69.2,35.4,35.5,69.2-69.2,251.6,251.5-69.3,69.2,35.4,35.4,69.2-69.2,251.6,251.6-69.3,69.3,35.4,35.4,69.4-69.3,74.4,74.4ZM1966.4,939.3l-35.4-35.5-173.5,173.5,35.4,35.4,173.5-173.5ZM1793.8,968.1l35.4-35.5-180.4-180.5-35.4,35.4,180.4,180.5ZM1686.3,932.5l-35.4-35.5-180.3,180.3,35.4,35.4,180.3-180.3ZM1506,825.8l173.6-173.6-35.4-35.4-173.6,173.6,35.4,35.4ZM1542.5,645.8l-180.4-180.5-35.4,35.5,180.4,180.5,35.4-35.4ZM1542.5,932.9l-180.4-180.5-35.4,35.4,180.4,180.5,35.4-35.4ZM1217.5,827.3l182-182-35.4-35.5-182,182,35.4,35.5Z"/>
    <rect class="cls-1" x="1747.3" y="1178.2" width="236.9" height="231.9"/>
    <polygon class="cls-1" points="1941.7 1460.2 1747.3 1654.6 1747.3 1460.2 1941.7 1460.2"/>
    <polyline class="cls-1" points="1697.2 2296.2 1697.2 2296.6 1190 2297 1697.2 1789.8 1697.2 2296.2"/>
    <polygon class="cls-1" points="1697.1 1460.2 1697.1 1697.1 1460.3 1697.1 1460.3 1460.2 1697.1 1460.2"/>
    <polygon class="cls-1" points="1697.1 1178.2 1697.1 1410.1 1460.3 1410.1 1460.3 1178.2 1697.1 1178.2"/>
    <polygon class="cls-1" points="1654.6 1747.2 1460.3 1941.7 1460.3 1747.2 1654.6 1747.2"/>
    <path class="cls-1" d="M1410.1,1178.2v231.9h-155.5c-3.5-77.2-22.9-154.9-58-231.9h213.5Z"/>
    <path class="cls-1" d="M1410.1,1460.2v236.9h-215.8c36.5-78.6,56.8-158,60.3-236.9h155.5Z"/>
    <path class="cls-1" d="M1410.1,1747.2v236.9h-308.6c3.9-78.6,26.4-157.3,67.4-236.9h241.2Z"/>
    <path class="cls-1" d="M1367.6,2034.3l-211.2,211.2c-33.1-70.9-51.4-141.1-54.9-211.2h266.1Z"/>
    <path class="cls-1" d="M1194.8,261.9h-266l211.2-211.2c33.1,70.9,51.3,141,54.9,211.2Z"/>
    <path class="cls-1" d="M921.7,312.1h273.1c-3.6,71.7-22.6,143.5-57.1,216l-216-216Z"/>
    <path class="cls-1" d="M1194.8,1410.1h-546s0,50.1,0,50.1h546c-3.9,78.6-26.4,157.3-67.5,236.9h-192.7v50.1h167.3c-36.5,78.6-56.8,158-60.3,236.9h-155.6v-474.2h-50.1v431.6l-194.2-194.2h143.4v-50.1h-186.1v-468.6s-50.1,0-50.1,0v425.9s-194.2-194.2-194.2-194.2h144.5v-50.1h-187.2v-231.9h523.9s0,182.2,0,182.2h50.1v-182.2h243.8c39.4,77.9,61.1,154.9,64.9,231.9Z"/>
    <polygon class="cls-1" points="1106.5 2297.1 599.2 2297.4 599.2 2296.2 599.2 1789.8 1106.5 2297.1"/>
    <polygon class="cls-1" points="1105.6 0 599.3 506.4 599.3 0 599.3 0 1105.6 0"/>
    <path class="cls-1" d="M921.7,599.1h180.3c-20.7,44.5-36.1,89.2-46.3,134l-134-134Z"/>
    <polygon class="cls-1" points="1087.7 549 886.1 549 886.1 347.4 1087.7 549"/>
    <polygon class="cls-1" points="1082.7 1118 886.1 1118 886.1 921.5 1082.7 1118"/>
    <path class="cls-1" d="M1066.9,1031.5l-145.3-145.3h120.1c2.2,48.3,10.6,96.9,25.2,145.3Z"/>
    <path class="cls-1" d="M1064,2169.5l-135.2-135.2h112.9c2,45,9.5,90.1,22.3,135.2Z"/>
    <path class="cls-1" d="M886.1,634.5l159.1,159.1c-1.7,14.2-2.9,28.3-3.5,42.5h-155.6v-201.6Z"/>
    <polygon class="cls-1" points="836 354.7 836 549 641.8 549 836 354.7"/>
    <polygon class="cls-1" points="836 599.1 836 800.5 634.7 599.1 836 599.1"/>
    <polygon class="cls-1" points="836 886.1 836 1087.5 634.7 886.1 836 886.1"/>
    <polygon class="cls-1" points="599.3 634.6 800.7 836 599.2 836 599.3 634.6"/>
    <polygon class="cls-1" points="795.7 1118 599.2 1118 599.2 921.6 795.7 1118"/>
    <polygon class="cls-1" points="549.2 0 549.2 0 549.1 513.5 35.7 0 549.2 0"/>
    <polygon class="cls-1" points="549.1 641.6 549.1 836 354.8 836 549.1 641.6"/>
    <polygon class="cls-1" points="549.1 2296.2 549.1 2297.5 0 2297.9 0 1747.3 .1 1747.3 549.1 1747.3 549.1 2296.2"/>
    <polygon class="cls-1" points="549.1 886.1 549.1 1087.6 347.7 886.1 549.1 886.1"/>
    <polygon class="cls-1" points="508.7 1118.1 312.1 1118.1 312.1 921.5 508.7 1118.1"/>
    <polygon class="cls-1" points="506.6 599.1 0 1105.7 0 599.1 .1 599.1 506.6 599.1"/>
    <polygon class="cls-1" points="261.9 1178.2 261.9 1367.4 72.7 1178.2 261.9 1178.2"/>
    <polygon class="cls-1" points="261.9 928.8 261.9 1118.1 72.7 1118.1 261.9 928.8"/>
    <polygon class="cls-1" points=".3 0 0 .3 0 0 .3 0"/>
    <polygon class="cls-1" points="0 1190.5 506.6 1697.1 .1 1697.1 0 1190.5"/>
    <polygon class="cls-1" points="0 548.9 0 35.2 513.7 549 .1 548.9 0 548.9"/>
    <polygon class="cls-1" points="0 0 0 .3 .3 0 0 0"/>
  </g>
</svg>