<?xml version="1.0" encoding="UTF-8"?>
<svg id="Layer_2" data-name="Layer 2" xmlns="http://www.w3.org/2000/svg" viewBox="0 0 500.92 672.41">
  <defs>
    <style>
      .cls-1 {
        fill: #1a1a18;
        fill-rule: evenodd;
      }
    </style>
  </defs>
  <g id="Layer_1-2" data-name="Layer 1">
    <g>
      <path class="cls-1" d="M257.02,208.41s-2.62-14.83-5.27-23.95c0,0-3.59-15.83-4.95-21.02,0,0-.29-.17-.8.31,0,0-.11-1.79-.6-2.69,0,0-.6-12.12-7.33-38.76,0,0-9.65-42.29-12.46-51.81,0,0-2.57-12.82-5.26-18.48,0,0-1.47,1.85-4.76,21.55l-1.95,8.72-6.91-37.73s-6.62-29.52-6.62-29.8c0-.3-1.45-6.77-1.45-6.77l-.57-2.03-.42-1.28-.45-2.3s-2.44-5.63-4.88.41c0,0-3.61,9.93-3.32,21.17,0,0-1.16,1.6-.44,4.47,0,0-4.76,2.74-1.29,17,0,0,8.36,29.22,10.64,36.15,0,0,8.65,29.93,10.38,34.27,0,0,1.09-4.96,1.24-7.69,0,0,.47-.54-.53-2.99,0,0-7.35-21.89-13.82-45.77,0,0-5.62-23.05-6.48-24.64,0,0,.6-2.91,1.47-3.51,0,0,5.12,19.8,5.59,21.62,0,0,9.18,33.27,10.15,35.95,0,0,4.43,12.95,4.77,14.79,0,0,.05,2.42.78-7.11,0,0-1.98-2.93-5.27-18.82,0,0-8.69-37.17-9.53-38.99,0,0-5.07-19.73-5.56-22.16,0,0,.47-2.23,1.07-2.72,0,0,.74.74,3.91,15.04,0,0,8.94,37.27,9.77,40.58,0,0,5.05,21.03,6.4,22.87,0,0,1.11-3.48,1.58-3.71,0,0-3.29,21.14-5.11,34.56,0,0-2.69,17.62-.62,36.07,0,0-.11.86-.35,1.71,0,0-2.68,10.51-9.04,27.25,0,0-.38.97.22,1.97,0,0,11.75,28.7,14.08,34.81,0,0-1.61,1.23-3.07,1.6,0,0-.97,1.09.25,1.97,0,0,2.06.85,2.82,1.68h.6l-.13-.83h-.29s-.25-.8-.44-1.11c0,0-.24-.79.44-.86,0,0,1.33-.96,2.68,0,0,0,1.76.82,1.1,1.28l-.67,1.25s2.45-1.05,3.18-.93c0,0,.42-1-.38-1.74,0,0-.31-1.08,1.12-.72,0,0,1.53.68,2.02,1.66,0,0,.04,1.82-2.2,1.64,0,0,3.42.79,4.93-.85,0,0,.87-.12-1.27-4.23v-.54s-3.24.46-4.6.3l-.42-.19s-3.56-22.31-5.87-32.64c0,0,4.6-3.23,4.96-4.09,0,0,6.04,9.03,11.18,21.45,0,0,7.46,15.76,7.75,21.08,0,0,.2-9.04-.24-13.88,0,0,2.82,1.53,8.4,6.32,0,0,7.87,7.26,11.28,2.85,0,0,3.73-2.95.86-17.05h0ZM217.34,224.37h0c.31.61,0,.72,0,.72l-2.24-.04-3.49-9.04-8.86-24.82c2.13-2.62,8.68-11.86,8.68-11.86.12.93-1.95,8.56-1.95,8.56-.97,2.13.36,5.13.36,5.13l.49,1.54,7.02,29.81h0ZM231.82,189.78h0c-9.91,1.72-13.68-8.68-13.68-8.68-5.49-17.83-3.41-43.15-3.41-43.15-.24-6.35,4.95-54.26,4.95-54.26.07,3.84-1.75,32.92-1.75,32.92-.43,1.9-.89,23.75-.89,23.75-.73,6.96.62,23.17.62,23.17,1.53,13.86,4.69,17.25,4.69,17.25,6.14,9.22,14.02,3.28,14.02,3.28,8.2-4.73,8.71-14.38,8.71-14.38-.49,16.76-13.25,20.1-13.25,20.1h0ZM251.6,219.94h0s-2.95,3.26-5.09,1.38c0,0-.14-.55.34-.23,0,0,2.86.49,3.35-1.74,0,0,.67-3.54-1.78-3.46,0,0-2.95.04-3.22,3.2,0,0-.82-.99,1.03-4.58,0,0,1.77-2.46,4.71-.25,0,0,3.04,2.19.66,5.68h0ZM247.6,218.42h0s1.27.42.78,1.55c0,0-.78,1.39-1.85,0,0,0-.36-1.8,1.07-1.55Z"/>
      <path class="cls-1" d="M244.73,272.7s-3.56-25.67-6.71-38.28c0,0,.6-9.94.66-12.83l.36-.89s.44,0,.69.4c0,0,.73-.18.97.44,0,0,10.02,8.79,14.35,8.37,0,0,.04,25.92-5.8,48.04,0,0-2.58-22.97-7.95-50.85,0,0-.75-1.41-1.74-.62,0,0-.28.25.07.51l.31.6.18.55s2.36,12.28,6.4,37.34c0,0-.84-.99-.4,1.97,0,0-.53,5.13-1.39,5.25Z"/>
      <path class="cls-1" d="M235.56,225.04s-9.08.63-11.06.79c0,0-.56-.42.62-1.04,0,0,4.71-1.09,9.91-1.45,0,0,.29.11.54,1.7Z"/>
      <path class="cls-1" d="M264.88,238.36s14.8-.06,16.58-.23c0,0,.66-.62-1.71-.51,0,0-4.89-.17-14.86.74h0ZM214.96,228.28h0s.17,5.02,12.52,7.21c0,0,10.33,2.33,27.26,2.76,0,0,6.22.29,8.42-.24,0,0,24.81-2.02,27.4-2.13,0,0,14.89-.87,17.23-1.67,0,0,1.4-.72,3.22-.79,0,0,10.75-2.5,9.35-4.28,0,0-1.03-2.75-27.78-4.46,0,0-8.45-.79-19.63-.92,0,0-13.46-.19-15.88.24,0,0,.74-1.39.91-2.67,0,0,9.33-.75,28.35.36,0,0,21.26.79,30.37,3.53,0,0,8.81,1.41,5.59,6.11,0,0-2.02,4.41-22.93,6.29,0,0-16.31,1.84-28.34,2.09,0,0-3.98.18-5.51.54,0,0-9.54.86-22.66-.43,0,0-5.58-.66-12.78-1.38,0,0-15.84-2.45-16.64-9.36,0,0,.24-.72,1.54-.79Z"/>
      <path class="cls-1" d="M218.56,234.45s-1.27-.3,1.29,12.89c0,0,1.42,3.1-.18,19.97,0,0-.55,17.79-11.55,32.46,0,0-6.11,9.79-22.24,24.2,0,0-20.03,16.87-24.69,21.76,0,0-6.35,6.36-10.51,10.77,0,0-16.63,20.77-4.64,75.54,0,0,14.42,66.24,24.66,78.7,0,0,13.96,26.39,27.15,30.31,0,0,20.04,11.75,79.2,7.81,0,0,32.27.49,39.59-15.87,0,0,5.89-9.29,7.33-13.7,0,0,22.27-64.03,23.98-74.06,0,0,12.95-35.93,11.72-66.24,0,0,2.45-24.69-15.9-40.82,0,0-13.98-13.27-22.21-21.5,0,0-12.84-12.11-11.37-40.16,0,0,1.84-22.35,7.15-39.42,0,0,2.76-3.85,2.56-1.66,0,0-6.22,32.47-6.77,41.99,0,0-2.39,22.74,9.34,37.05,0,0,8.25,8.6,24.38,24,0,0,3.13,1.65,8.26,10.1,0,0,11.35,14.29,6.95,45.46,0,0-2.38,25.67-13.75,59.95,0,0-8.98,31.71-17.6,55.17,0,0-8.62,35.2-27.51,39.04l-2.93,1.28s-6.39,4.96-46.74,5.14c0,0-44.54.74-63.43-15.96,0,0-17.06-10.82-28.61-41.8,0,0-12.82-40.88-16.13-54.83,0,0-7.51-31.69-7.51-46.72,0,0,.91-25.69,7.33-35.58,0,0,2.56-5.5,11.91-13.57,0,0,28.05-21.99,41.61-38.68,0,0,18.35-17.79,18.15-42.55,0,0,2.78-9.34-2.55-33.36,0,0,2.44,2.5,4.26,2.87Z"/>
      <polygon class="cls-1" points="141.65 418.37 357.45 412.68 357.53 416.06 141.73 421.74 141.65 418.37"/>
      <polygon class="cls-1" points="245.89 269.29 244.25 479.02 246.58 478.9 248.39 267.9 249.73 267.92 247.91 479.55 247.91 480.18 247.27 480.21 243.6 480.39 242.89 480.43 242.9 479.72 244.55 269.28 245.89 269.29"/>
      <path class="cls-1" d="M275.73,445.18s-1.11-5.22,3.71-3.51l.57.5s2.91,5.77-3.56,3.81l.29-.97-1,.17h0ZM278.33,443.49c-.44,0-.59.34-.63.68.63.03.69-.36.63-.68Z"/>
      <path class="cls-1" d="M255.46,434.7s-1.1-5.22,3.72-3.5l.56.5s2.92,5.79-3.57,3.8l.29-.97-1,.17h0ZM258.07,433.02c-.45,0-.6.34-.64.68.64.03.7-.36.64-.68Z"/>
      <path class="cls-1" d="M267,450.85s-5.3-2.21-1.01-6.74l.25-.19s7.71-3.84,6.25,4.37l-.02.07s-.75,3.04-5.12,2.6l.1-1.01-.45.91h0ZM267.34,445.62c-1.72,1.94-.18,3.02.38,3.32,2.25.17,2.71-.87,2.77-1.06.65-3.76-2.48-2.55-3.15-2.26Z"/>
      <path class="cls-1" d="M274.89,429.2s-6.16,3.41-7.34-3.11l-.02-.18s.25-6.81,8.01-3.71l.35.22s2.67,2.7-.69,6.53l-.76-.67.45.91h0ZM269.56,425.86c.64,3.08,3.48,1.98,4.23,1.62,1.58-1.89,1.01-3.11.75-3.49-4.48-1.67-4.94,1.4-4.98,1.86Z"/>
      <path class="cls-1" d="M223.65,487.58s-.98-4.61,3.27-3.09l.43.15.17.43s2.49,5-3.16,3.28l.29-.97-1,.2Z"/>
      <path class="cls-1" d="M207.12,479.04s-.92-4.57,3.29-3.09l.44.15.17.43s2.49,5-3.19,3.28l.29-.97-1,.2Z"/>
      <path class="cls-1" d="M216.72,492.35s-4.67-1.92-.97-5.83l.28-.21s6.58-3.28,5.35,3.77l-.04.14s-.67,2.56-4.34,2.19l.1-1.01-.38.94h0ZM217.11,488.05c-1.22,1.41-.11,2.16.26,2.36,1.51.1,1.93-.52,2.03-.75.42-2.58-1.68-1.87-2.29-1.61Z"/>
      <path class="cls-1" d="M223.29,474.66s-5.3,2.94-6.3-2.65l-.02-.18s.19-5.82,6.79-3.17l.34.22s2.29,2.31-.55,5.57l-.77-.67.5.88h0ZM219,471.77c.48,2.27,2.58,1.46,3.14,1.19,1.12-1.37.8-2.23.61-2.53-3.34-1.22-3.71.95-3.75,1.33Z"/>
      <g>
        <path class="cls-1" d="M120.26,519.79s11.95-5.5,13.31-7.34c0,0,1.46-1.1,2.44-.72,0,0,3.56,3.54,10.64,9.9,0,0,4.76,4.63,4.89,5.97,0,0,.49.62-1.22,3.78,0,0-1.34,3.7-1.6,4.79l-2.8,1.09,2.93-2.81-9.52,3.79-1.35.25s.48-1.23,6.36-4.04l2.81-2.1-15.75,5.77,6.58-4.05,3.31-2.3-15.28,5.75s-2.56.34-2.94-.39c0,0,10.51-4.03,14.18-5.99l3.18-2.08-16.73,4.65s12.72-5.74,13.69-7.22c0,0-14.31,4.65-15.53,4.54,0,0,11.84-5.51,13.19-6.97,0,0-2.68.2-11.39,3.31l-.21-.17s2.36-1.02,3.57-2c0,0,1.6-.77,2.61-1.04,0,0,3.77-2.14,4.45-2.99,0,0-2.74.46-4.7,1.44,0,0-4.51,1.21-6.51,2.15l-.82.04s-.07-.26.09-.3c.15-.02,5.57-2.84,6.67-3.45,0,0,2.12-1.22,2.27-1.59,0,0-1.73-.07-5.24,1.34,0,0-2.89.82-3.95,1.27l-.49-.13s3.84-2.19,4.64-2.92l1.95-1.47s-3.18.61-5.91,1.78l-1.56.49-.26-.03h0ZM134.36,543.62h0l15.59-4.04s2,.73,2.18-3.87l1.29-4.38s1.46-2.94-1.09-5.5c0,0-2.02-4.21-15.39-15.21,0,0-1.47-2.59-3.87-.38,0,0-13.93,7.9-15.78,8.8,0,0-3.09,1.29-1.44,4.4,0,0,3.67,12.11,4.4,13.75,0,0,.91,2.19,2.2,2.39,0,0-.2.91,11.91,4.04Z"/>
        <path class="cls-1" d="M164.58,553.48l-4.25,1.14-1.23-2.7s-.39-.56.09-.89c0,0,4.18-5.31,4.8-5.71,0,0,.93.53,1.38.62,0,0,.52,1.51,1.78,2.92,0,0-1.39-.06-2.53.47l-3.18,1.22,5.44.04s.22-.08.54-.46l.29-.04.78.77v.36s-.24.16-.4.09c-.18-.09-5.35.2-6.33,1,0,0,2.36.52,2.83,1.16h0ZM159.29,555.9h0l2.02,3.12,1.08-.2,4.78-1.46s1.47-.18,2.2-2c0,0,2.93-1.48.56-4.96l-3.84-6.23s-.56-2.38-2.94,0l-5.33,6.05s-.73.74,0,2.01l1.47,3.68Z"/>
        <path class="cls-1" d="M137.19,551.38s6.35-2.92,7.06-3.88c0,0,.79-.6,1.3-.4,0,0,1.88,1.88,5.65,5.24,0,0,2.52,2.46,2.58,3.18,0,0,.26.32-.65,2,0,0-.71,1.94-.83,2.52l-1.49.6,1.54-1.5-5.05,2.01-.71.13s.26-.65,3.37-2.14l1.48-1.1-8.36,3.04,3.5-2.14,1.75-1.22-8.1,3.03s-1.35.2-1.55-.19c0,0,5.56-2.13,7.51-3.17l1.69-1.1-8.87,2.46s6.73-3.04,7.26-3.82c0,0-7.59,2.46-8.23,2.39,0,0,6.29-2.91,7-3.69,0,0-1.43.1-6.05,1.74l-.1-.07s1.25-.54,1.89-1.07c0,0,.84-.41,1.38-.56,0,0,1.99-1.13,2.35-1.58,0,0-1.44.24-2.48.75,0,0-2.41.65-3.46,1.14l-.43.03s-.05-.13.05-.15c.07-.02,2.95-1.52,3.54-1.83,0,0,1.11-.65,1.21-.84,0,0-.93-.04-2.79.72,0,0-1.53.43-2.1.66l-.25-.06s2.03-1.17,2.45-1.55l1.03-.78s-1.68.32-3.13.95l-.82.26-.14-.02h0ZM144.67,564.01h0l8.26-2.14s1.07.4,1.17-2.04l.68-2.33s.77-1.57-.59-2.92c0,0-1.06-2.23-8.15-8.06,0,0-.77-1.36-2.03-.19,0,0-7.38,4.18-8.36,4.66,0,0-1.65.68-.77,2.33,0,0,1.94,6.41,2.33,7.29,0,0,.49,1.16,1.17,1.25,0,0-.11.49,6.31,2.14Z"/>
      </g>
      <g>
        <polygon class="cls-1" points="0 600.32 43.99 600.32 40.32 614.98 16.23 614.98 16.23 629.11 38.75 629.11 38.75 643.79 16.23 643.79 16.23 656.69 41.71 656.69 45.38 671.19 0 671.19 0 600.32"/>
        <polygon class="cls-1" points="92.15 671.19 75.93 671.19 75.93 638.54 51.84 600.32 69.64 600.32 83.78 623.53 98.96 600.32 116.59 600.32 92.15 638.2 92.15 671.19"/>
        <polygon class="cls-1" points="125.49 600.32 169.48 600.32 165.81 614.98 141.73 614.98 141.73 629.11 164.24 629.11 164.24 643.79 141.73 643.79 141.73 656.69 167.22 656.69 170.88 671.19 125.49 671.19 125.49 600.32"/>
        <path class="cls-1" d="M200.64,669.43c-4.36-1.97-8.12-4.62-11.28-7.94-3.17-3.31-5.64-7.17-7.43-11.61-1.79-4.42-2.68-9.13-2.68-14.13s.89-9.54,2.68-13.96c1.79-4.42,4.26-8.29,7.43-11.61,3.17-3.32,6.92-5.95,11.28-7.94,4.35-1.98,9.04-2.97,14.05-2.97,9.65,0,18.43,4.54,26.35,13.62l-9.77,10.3c-3.38-3.72-6.35-6.21-8.91-7.49-2.56-1.28-5.12-1.92-7.67-1.92s-4.98.56-7.25,1.66c-2.27,1.11-4.28,2.61-6.02,4.53-1.75,1.92-3.11,4.22-4.09,6.9-1,2.68-1.49,5.65-1.49,8.9s.49,6.23,1.49,8.9c.98,2.68,2.35,4.97,4.09,6.9,1.75,1.92,3.75,3.43,6.02,4.54,2.27,1.11,4.69,1.65,7.25,1.65s5.38-.63,8.1-1.91c2.74-1.28,5.91-3.67,9.52-7.17l10.12,10.47c-8.84,8.84-18.1,13.27-27.74,13.27-5.01,0-9.69-.99-14.05-2.97Z"/>
        <path class="cls-1" d="M286.24,654.43c-1.29.58-2.71,1.1-4.27,1.57-1.58.46-3.17.69-4.8.69s-3.21-.25-4.72-.77c-1.51-.52-3.03-1.08-4.54-1.66l-6.98,16.93h-16.76l32.99-79.94,31.93,79.94h-16.22l-6.64-16.76h0ZM272.1,640.81h0c.58.24,1.42.59,2.53,1.05,1.11.47,1.96.71,2.54.71s1.39-.23,2.44-.71c1.05-.46,1.86-.8,2.45-1.05l-4.88-12.39-5.07,12.39Z"/>
        <polygon class="cls-1" points="346.63 615.16 346.63 671.19 330.4 671.19 330.4 615.16 314.87 615.16 311.2 600.67 365.66 600.67 362.17 615.16 346.63 615.16"/>
        <path class="cls-1" d="M393.68,669.43c-4.36-1.97-8.13-4.62-11.28-7.94-3.17-3.31-5.65-7.17-7.43-11.61-1.79-4.42-2.69-9.13-2.69-14.13s.9-9.54,2.69-13.96c1.78-4.42,4.26-8.29,7.43-11.61,3.15-3.32,6.92-5.95,11.28-7.94,4.36-1.98,9.04-2.97,14.04-2.97,9.65,0,18.44,4.54,26.35,13.62l-9.77,10.3c-3.38-3.72-6.34-6.21-8.9-7.49-2.56-1.28-5.11-1.92-7.67-1.92s-4.98.56-7.25,1.66c-2.27,1.11-4.28,2.61-6.02,4.53-1.74,1.92-3.11,4.22-4.1,6.9-.99,2.68-1.47,5.65-1.47,8.9s.49,6.23,1.47,8.9c1,2.68,2.37,4.97,4.1,6.9,1.74,1.92,3.75,3.43,6.02,4.54,2.27,1.11,4.68,1.65,7.25,1.65s5.38-.63,8.11-1.91c2.73-1.28,5.91-3.67,9.5-7.17l10.13,10.47c-8.84,8.84-18.1,13.27-27.75,13.27-5,0-9.69-.99-14.04-2.97Z"/>
        <polygon class="cls-1" points="484.7 643.79 461.66 643.79 461.66 671.19 445.42 671.19 445.42 600.32 461.66 600.32 461.66 629.29 484.7 629.29 484.7 600.32 500.92 600.32 500.92 671.19 484.7 671.19 484.7 643.79"/>
      </g>
    </g>
  </g>
</svg>